<?xml version="1.0"?>
<svg xmlns="http://www.w3.org/2000/svg" xmlns:xlink="http://www.w3.org/1999/xlink" xmlns:svgjs="http://svgjs.com/svgjs" version="1.1" width="512" height="512" x="0" y="0" viewBox="0 0 512 512" style="enable-background:new 0 0 512 512" xml:space="preserve" class=""><rect width="512" height="512" rx="20" ry="20" fill="#ebd458" shape="rounded" transform="matrix(1,0,0,1,0,0)"/><g transform="matrix(0.7,0,0,0.7,76.79999542236328,76.80000572204591)"><g xmlns="http://www.w3.org/2000/svg"><g><g><path d="m118.042 281.636c-19.493-26.133-32.136-57.662-35.243-91.901l24.535-8.401 8.768 8.405c2.836 25.458 12.128 48.995 26.196 68.932l-10.631 18.996z" fill="#70af85" data-original="#6a91cb" style="" class=""/></g><g><g><path d="m413.383 156.6-7.015-70.958c-1.553-15.707-13.97-28.138-29.676-29.709l-22.495-2.25-13.697 18.317 10.895 14.702 8.458.846c7.859.786 14.07 7.01 14.84 14.87l5.305 54.185 16.646 8.28z" fill="#f9f6f6" data-original="#f9f6f6" style="" class=""/></g></g><path d="m406.368 85.642c-1.553-15.707-13.97-28.138-29.676-29.709l-22.495-2.25-1.601 2.141 1.088.109c15.705 1.571 28.123 14.002 29.676 29.709l7.016 70.958-5.205 2.576 11.474 5.708 16.739-8.283z" fill="#f0e2d0" data-original="#ecdaec" style="" class=""/><path d="m245.014 40.633c9.306-19.59 29.273-33.133 52.403-33.133 32.023 0 57.983 25.96 57.983 57.983s-25.96 57.983-57.983 57.983c-23.13 0-43.097-13.543-52.403-33.133z" fill="#f0e2d0" data-original="#e9a82f" style="" class=""/><path d="m413.383 290.079-33.133-.053c-51.787 7.897-91.462 52.624-91.462 106.618 0 59.567 48.289 107.856 107.856 107.856s107.856-48.289 107.856-107.856c0-53.873-39.499-98.522-91.117-106.565zm-16.566 181.288c-41.173 0-74.55-33.377-74.55-74.55 0-35.479 24.784-65.169 57.983-72.702h33.136c33.199 7.534 57.982 37.224 57.982 72.702-.001 41.173-33.379 74.55-74.551 74.55z" fill="#529368" data-original="#365e7d" style="" class=""/><g><g><path d="m413.383 250v155.1c0 9.15-7.417 16.567-16.567 16.567s-16.566-7.417-16.566-16.567v-155.1z" fill="#f9f6f6" data-original="#f9f6f6" style="" class=""/></g></g><g><path d="m99.879 377.31c25.784-79.91 100.877-137.877 189.254-137.877h82.833l18.742-18.653-18.742-14.48h-82.833c-61.951 0-120.195 24.125-164.001 67.932-27.804 27.803-47.679 61.423-58.49 98.114l16.156 18.154z" fill="#c6ebc9" data-original="#8ec6f6" style="" class=""/><path d="m348.75 206.3v33.133h23.217l18.741-18.653-18.741-14.48z" fill="#70af85" data-original="#6a91cb" style="" class=""/></g><path d="m156.6 189.733h-115.967c-9.149 0-16.567-7.417-16.567-16.567 0-18.299 14.834-33.133 33.133-33.133h82.833c18.299 0 33.133 14.834 33.133 33.133.002 9.15-7.416 16.567-16.565 16.567z" fill="#529368" data-original="#365e7d" style="" class=""/><path d="m413.383 290.079-33.133-.053c-.075.012-.148.025-.223.037l10.356.017c51.618 8.043 91.117 52.691 91.117 106.565 0 55.682-42.196 101.504-96.356 107.245 3.779.401 7.615.611 11.5.611 59.567 0 107.856-48.289 107.856-107.856 0-53.874-39.499-98.523-91.117-106.566z" fill="#457c3d" data-original="#2b4d66" style="" class=""/><path d="m390.375 250v155.1c0 4.677-1.946 8.893-5.063 11.906 2.98 2.88 7.031 4.661 11.504 4.661 9.15 0 16.567-7.417 16.567-16.566v-155.101z" fill="#f0e2d0" data-original="#ecdaec" style="" class=""/><path d="m413.667 256h-33.7c-4.418 0-8-3.582-8-8v-62.439h49.7v62.439c0 4.418-3.582 8-8 8z" fill="#c6ebc9" data-original="#8ec6f6" style="" class=""/><path d="m398.708 185.561v62.439c0 4.418-3.582 8-8 8h22.958c4.418 0 8-3.582 8-8v-62.439z" fill="#70af85" data-original="#6a91cb" style="" class=""/><path d="m421.95 189.733h-50.267c-4.418 0-8-3.582-8-8v-17.133c0-4.418 3.582-8 8-8h50.267c4.418 0 8 3.582 8 8v17.133c0 4.419-3.582 8-8 8z" fill="#f0e2d0" data-original="#f4d844" style="" class=""/><path d="m421.95 156.6h-22.992c4.418 0 8 3.581 8 8v17.133c0 4.418-3.582 8-8 8h22.992c4.418 0 8-3.582 8-8v-17.133c0-4.418-3.582-8-8-8z" fill="#edbd2d" data-original="#edbd2d" style="" class=""/><path d="m297.417 7.5c-3.938 0-7.781.401-11.499 1.15 26.501 5.346 46.457 28.757 46.457 56.834s-19.956 51.488-46.457 56.834c3.718.748 7.561 1.15 11.499 1.15 32.023 0 57.983-25.96 57.983-57.983 0-32.025-25.96-57.985-57.983-57.985z" fill="#aa8976" data-original="#da7d1f" style="" class=""/><path d="m222.867 40.633h74.55c13.724 0 24.85 11.126 24.85 24.85s-11.126 24.85-24.85 24.85h-74.55z" fill="#f0e2d0" data-original="#f4d844" style="" class=""/><path d="m297.417 40.633h-23.017c13.724 0 24.85 11.126 24.85 24.85s-11.126 24.85-24.85 24.85h23.017c13.724 0 24.85-11.126 24.85-24.85s-11.126-24.85-24.85-24.85z" fill="#edbd2d" data-original="#edbd2d" style="" class=""/><circle cx="222.867" cy="65.483" fill="#edbd2d" r="24.85" data-original="#edbd2d" style="" class=""/><path d="m73.767 371.967c-36.598 0-66.267 29.669-66.267 66.267s29.669 66.267 66.267 66.267 66.267-29.669 66.267-66.267c-.001-36.599-29.669-66.267-66.267-66.267zm0 99.4c-18.299 0-33.133-14.835-33.133-33.133 0-18.299 14.834-33.133 33.133-33.133s33.133 14.834 33.133 33.133c0 18.298-14.834 33.133-33.133 33.133z" fill="#529368" data-original="#365e7d" style="" class=""/><g fill="#2b4d66"><path d="m73.767 371.967c-3.925 0-7.763.361-11.5 1.015 31.113 5.447 54.767 32.578 54.767 65.252 0 32.673-23.653 59.804-54.767 65.251 3.737.654 7.575 1.015 11.5 1.015 36.598 0 66.267-29.669 66.267-66.267-.001-36.598-29.669-66.266-66.267-66.266z" fill="#457c3d" data-original="#2b4d66" style="" class=""/><path d="m140.033 140.033h-22.917c18.299 0 33.133 14.835 33.133 33.133 0 9.15-7.417 16.567-16.567 16.567h22.918c9.149 0 16.567-7.417 16.567-16.567 0-18.298-14.835-33.133-33.134-33.133z" fill="#457c3d" data-original="#2b4d66" style="" class=""/></g></g><g><path d="m33.133 438.233c0 22.405 18.228 40.633 40.633 40.633s40.633-18.228 40.633-40.633-18.227-40.633-40.632-40.633-40.634 18.228-40.634 40.633zm66.267 0c0 14.134-11.499 25.633-25.633 25.633s-25.633-11.499-25.633-25.633c0-14.135 11.499-25.634 25.633-25.634s25.633 11.5 25.633 25.634z" fill="#000000" data-original="#000000" style="" class=""/><path d="m483.974 321.272c-16.466-19.063-38.682-32.174-63.091-37.408v-22.159c4.919-2.601 8.283-7.765 8.283-13.706v-52.56c4.92-2.6 8.284-7.765 8.284-13.706v-17.133c0-8.547-6.953-15.5-15.5-15.5h-1.772l-6.347-64.194c-1.897-19.193-17.202-34.516-36.392-36.435l-17.286-1.729c-8.082-27.002-33.141-46.742-62.737-46.742-23.535 0-45.383 12.86-56.941 33.134h-17.609c-17.838 0-32.35 14.512-32.35 32.35s14.512 32.35 32.35 32.35h17.608c11.559 20.273 33.408 33.134 56.942 33.134 25.612 0 47.823-14.788 58.579-36.267l3.111.311c4.286.429 7.702 3.852 8.122 8.138l4.499 45.951h-.044c-8.547 0-15.5 6.953-15.5 15.5v17.134c0 5.941 3.364 11.106 8.284 13.706v3.36h-75.333c-53.122 0-103.593 17.198-145.085 48.934-9.629-15.43-16.207-32.632-19.303-50.5h31.854c13.27 0 24.066-10.796 24.066-24.066 0-22.405-18.228-40.634-40.633-40.634h-82.833c-22.405 0-40.633 18.229-40.633 40.634 0 13.27 10.796 24.066 24.066 24.066h35.447c3.848 30.134 14.944 58.901 32.366 83.906-21.493 24.699-37.769 53.554-47.582 84.481-34.541 6.12-60.864 36.34-60.864 72.611 0 40.675 33.092 73.767 73.767 73.767s73.767-33.092 73.767-73.767c0-27.877-15.547-52.188-38.424-64.729 27.32-75.972 98.859-126.571 180.024-126.571h75.333v1.067c0 5.941 3.364 11.105 8.283 13.706v22.086c-24.486 5.171-46.782 18.26-63.319 37.345-18.148 20.944-28.143 47.76-28.143 75.507 0 63.608 51.749 115.355 115.356 115.355s115.356-51.747 115.356-115.354c0-27.682-9.953-54.45-28.026-75.373zm-104.007-72.772c-.276 0-.5-.225-.5-.5v-50.767h34.7v50.767c0 .275-.224.5-.5.5zm25.916 15v141.6c0 5-4.067 9.067-9.066 9.067-5 0-9.067-4.067-9.067-9.067v-141.6zm-9.066 165.667c13.27 0 24.066-10.797 24.066-24.067v-70.895c25.719 9.782 42.983 34.322 42.983 62.612 0 36.972-30.079 67.05-67.05 67.05-36.972 0-67.05-30.078-67.05-67.05 0-28.29 17.264-52.831 42.983-62.612v70.895c.001 13.27 10.797 24.067 24.068 24.067zm-146.667-346.334c3.202-5.018 5.067-10.968 5.067-17.35s-1.865-12.332-5.067-17.35h47.267c9.567 0 17.35 7.783 17.35 17.35s-7.783 17.35-17.35 17.35zm-44.633-17.35c0-9.566 7.783-17.35 17.35-17.35s17.35 7.783 17.35 17.35-7.783 17.35-17.35 17.35-17.35-7.783-17.35-17.35zm91.899 50.484c-15.078 0-29.258-6.849-38.735-18.134h38.735c17.838 0 32.35-14.512 32.35-32.35s-14.512-32.35-32.35-32.35h-38.736c9.478-11.284 23.658-18.133 38.736-18.133 27.836 0 50.483 22.646 50.483 50.483s-22.646 50.484-50.483 50.484zm84.741-14.279c-1.094-11.17-9.856-20.111-20.94-21.513 1.088-4.726 1.682-9.639 1.682-14.691 0-1.141-.03-2.274-.088-3.401l13.134 1.314c12.106 1.21 21.761 10.877 22.958 22.984l6.201 62.719h-18.306zm-10.974 62.912c0-.275.224-.5.5-.5h50.267c.276 0 .5.225.5.5v17.134c0 .141-.06.268-.155.359-.208-.017-.417-.032-.629-.032h-49.7c-.212 0-.421.014-.629.032-.095-.091-.155-.217-.155-.359v-17.134zm-339.616 8.567c0-14.135 11.499-25.634 25.633-25.634h82.833c14.134 0 25.633 11.499 25.633 25.634 0 4.999-4.067 9.066-9.066 9.066h-115.967c-4.999 0-9.066-4.067-9.066-9.066zm59.664 24.066h18.325c3.325 21.312 11.112 41.83 22.785 60.038-4.284 3.723-8.46 7.605-12.512 11.657-.304.304-.603.614-.906.92-14.62-21.844-24.083-46.652-27.692-72.615zm41.302 241c0 32.404-26.363 58.767-58.767 58.767s-58.766-26.362-58.766-58.767 26.363-58.767 58.767-58.767 58.766 26.363 58.766 58.767zm156.6-206.299c-44.467 0-86.849 13.986-122.564 40.446-32.907 24.378-57.438 57.205-71.306 95.291-5.804-1.771-11.908-2.843-18.216-3.121 11.022-31.727 29.326-60.952 53.388-85.015 42.389-42.39 98.749-65.735 158.698-65.735h75.333v18.134zm107.511 265.066c-55.336 0-100.356-45.02-100.356-100.355 0-46.195 32.309-86.636 76.462-97.482v19.21c-15.522 4.773-29.484 14.168-39.774 26.9-11.742 14.526-18.209 32.832-18.209 51.545 0 45.242 36.808 82.05 82.05 82.05s82.05-36.808 82.05-82.05c0-18.713-6.467-37.018-18.208-51.545-10.291-12.731-24.252-22.127-39.775-26.9v-19.143c44.595 10.935 76.116 50.59 76.116 97.415 0 55.335-45.02 100.355-100.356 100.355z" fill="#000000" data-original="#000000" style="" class=""/></g></g></g></svg>
